<svg id="visual" viewBox="0 0 960 540" width="960" height="540" xmlns="http://www.w3.org/2000/svg" xmlns:xlink="http://www.w3.org/1999/xlink" version="1.1"><rect x="0" y="0" width="960" height="540" fill="#ffffff"></rect><defs><linearGradient id="grad1_0" x1="43.8%" y1="100%" x2="100%" y2="0%"><stop offset="14.444444444444446%" stop-color="#ffffff" stop-opacity="1"></stop><stop offset="85.55555555555554%" stop-color="#ffffff" stop-opacity="1"></stop></linearGradient></defs><defs><linearGradient id="grad2_0" x1="0%" y1="100%" x2="56.3%" y2="0%"><stop offset="14.444444444444446%" stop-color="#ffffff" stop-opacity="1"></stop><stop offset="85.55555555555554%" stop-color="#ffffff" stop-opacity="1"></stop></linearGradient></defs><g transform="translate(960, 540)"><path d="M-216 0C-210.9 -38.7 -205.8 -77.5 -187.1 -108C-168.3 -138.5 -135.9 -160.9 -102.5 -177.5C-69.1 -194.2 -34.5 -205.1 0 -216L0 0Z" fill="#6969ff"></path></g><g transform="translate(0, 0)"><path d="M216 0C208.3 36.4 200.6 72.8 183.6 106C166.6 139.2 140.2 169.3 108 187.1C75.8 204.9 37.9 210.4 0 216L0 0Z" fill="#6969ff"></path></g></svg>